<svg xmlns:xlink="http://www.w3.org/1999/xlink" xmlns:dc="http://purl.org/dc/elements/1.1/" xmlns:cc="http://creativecommons.org/ns#" xmlns:rdf="http://www.w3.org/1999/02/22-rdf-syntax-ns#" xmlns:svg="http://www.w3.org/2000/svg" xmlns="http://www.w3.org/2000/svg" xmlns:sodipodi="http://sodipodi.sourceforge.net/DTD/sodipodi-0.dtd" xmlns:inkscape="http://www.inkscape.org/namespaces/inkscape" viewBox="0 -256 1792 1792" id="svg3037" version="1.1" inkscape:version="0.48.3.1 r9886" width="512" height="512" sodipodi:docname="asterisk_font_awesome.svg">
  <g transform="matrix(1,0,0,-1,53.152542,1308.2034)" id="g3039">
    <path d="m 1482,486 q 46,-26 59.5,-77.5 Q 1555,357 1529,311 L 1465,201 Q 1439,155 1387.5,141.5 1336,128 1290,154 L 1024,307 V 0 q 0,-52 -38,-90 -38,-38 -90,-38 H 768 q -52,0 -90,38 -38,38 -38,90 V 307 L 374,154 Q 328,128 276.5,141.5 225,155 199,201 L 135,311 Q 109,357 122.5,408.5 136,460 182,486 L 448,640 182,794 Q 136,820 122.5,871.5 109,923 135,969 l 64,110 q 26,46 77.5,59.5 Q 328,1152 374,1126 L 640,973 v 307 q 0,52 38,90 38,38 90,38 h 128 q 52,0 90,-38 38,-38 38,-90 V 973 l 266,153 q 46,26 97.5,12.5 51.5,-13.5 77.5,-59.5 l 64,-110 q 26,-46 12.5,-97.5 Q 1528,820 1482,794 L 1216,640 z" id="path3041" inkscape:connector-curvature="0" style="fill:#61DBFB"/>
  </g>
</svg>